<svg id="Group_32" data-name="Group 32" xmlns="http://www.w3.org/2000/svg" width="420.576" height="238.503" viewBox="0 0 420.576 238.503">
  <path id="Path_233" data-name="Path 233" d="M152,114.474s-29.934,86.279-98.464,147.415c0,0,102.549,27.609,147.908,45.358L413.04,285.062s-45.554-34.02-69.657-92.689S306.6,91.794,306.6,91.794,214.474,145.534,152,114.474Z" transform="translate(-14.988 -91.794)" fill="#cf5b3e"/>
  <path id="Path_234" data-name="Path 234" d="M271.464,171.125c-13.737,7.186-27.167,14.995-41.038,21.916-18.6,9.281-40.524,18.182-61.682,17.459-20.937-.716-35.877-13.349-37.809-34.605-.557-6.136-.092-13.019.226-20-2.716,4.251-5.738,8.377-7.917,12.661-6.325,12.44-12.8,24.717-20.524,36.367C95.474,215.856,87.592,226.9,77.687,235.6c-1.634,1.436-16.237,15.03-18.824,16.4,21.863,5.986,95.589,26.477,135.9,41.47,38.475-44.061,75.561-114.722,79.479-123.8Q272.851,170.394,271.464,171.125Z" transform="translate(-14.025 -80.195)" fill="#b0482e"/>
  <path id="Path_235" data-name="Path 235" d="M116.219,169.993c-2.327,4.313-5.162,8.929-8.084,13.575-2.21,3.515-3.274,47.035,6.322,58.277,6.026,7.06,15.448,10.373,24.669,11.433,21.895,2.513,53.335-8.137,70.888-21.464,12.9-9.8,31.8-30.412,41.727-43.139,9.433-12.094,38.005-66.288,45.253-96.88-6.674,17.933-17.873,36.138-22.2,44.742-9.738,19.342-22.335,34.813-37.332,50.572A197.613,197.613,0,0,1,192.681,222.3c-9.259,5.306-19.1,9.907-29.615,11.713s-21.842.6-30.9-5.032c-16.95-10.535-17.341-33.982-16.194-51.741C116.058,175.833,116.1,171.4,116.219,169.993Z" transform="translate(-5.38 -91.794)" fill="#ac4329"/>
  <path id="Path_236" data-name="Path 236" d="M289.162,172.032a160.453,160.453,0,0,1-18.268,27.012,161.542,161.542,0,0,0-15.457,22.383c-11.267,18.921-25.737,34.6-40.309,50.918-7,7.841-13.675,16.062-20.954,23.62l193.419-20.279S342.038,241.666,317.935,183c-5.85-14.24-11.025-27.487-15.51-39.387A207.841,207.841,0,0,1,289.162,172.032Z" transform="translate(10.46 -82.418)" fill="#b53a39"/>
  <g id="Group_28" data-name="Group 28" transform="translate(186.83)">
    <path id="Path_237" data-name="Path 237" d="M179.134,307.2l211.179-22.142s-45.554-34.02-69.657-92.689S283.875,91.794,283.875,91.794s-17.858,84.8-39.954,123.874C218.251,261.06,185.634,300.677,179.134,307.2Z" transform="translate(-179.092 -91.794)" fill="#b4472c"/>
    <path id="Path_238" data-name="Path 238" d="M272.35,106.98s-1.078,87.575-8.967,128.5c-7.014,36.382-15.525,52.606-22.2,61.3l92.118-9.659c-13.69-13.66-38.406-42.539-44.037-77.644C281.879,163.408,272.35,106.98,272.35,106.98Z" transform="translate(-167.863 -89.046)" fill="#b4472c"/>
    <path id="Path_239" data-name="Path 239" d="M179.141,274.2l-.022,0-.02.041Z" transform="translate(-179.098 -58.788)" fill="#b4472c"/>
  </g>
  <path id="Path_240" data-name="Path 240" d="M316.937,266.077c-16.652,1.966-102.6,12.005-109.36,9.892-6.86-2.144-52.205-16.561-66.664-20.188-15.423-3.87-73.595-26.786-76.93-28.254q-5.068,4.987-10.447,9.8s102.549,27.609,147.908,45.358L413.04,260.5s-2.286-1.712-6.1-5.022C406.936,255.478,340.389,263.308,316.937,266.077Z" transform="translate(-14.988 -67.233)" fill="#a03f27"/>
  <path id="Path_241" data-name="Path 241" d="M250.416,294.26l66.542-6.977c-6.2-7.864-30.47-40.886-36.264-82.511-6.656-47.824-8.869-90.225-8.869-90.225s1.156,88.425-3.457,122.518C265.112,261.141,256.011,282.726,250.416,294.26Z" transform="translate(20.637 -87.677)" fill="#6e232f"/>
  <path id="Path_242" data-name="Path 242" d="M250.416,294.26l66.542-6.977c-6.2-7.864-30.47-40.886-36.264-82.511-6.656-47.824-8.869-90.225-8.869-90.225s1.156,88.425-3.457,122.518C265.112,261.141,256.011,282.726,250.416,294.26Z" transform="translate(20.637 -87.677)" fill="#6e232f"/>
  <path id="Path_243" data-name="Path 243" d="M250.416,294.26l66.542-6.977c-6.2-7.864-30.47-40.886-36.264-82.511-6.656-47.824-8.869-90.225-8.869-90.225s1.156,88.425-3.457,122.518C265.112,261.141,256.011,282.726,250.416,294.26Z" transform="translate(20.637 -87.677)" fill="#6e232f"/>
  <path id="Path_244" data-name="Path 244" d="M285.131,251.819c-9.471-.338-17.734-1.4-26.918-.468-2.761,7.353-5.559,13.606-7.8,18.221l66.321-6.954c-.026-.025-.054-.038-.08-.064C315,260.981,293.863,252.131,285.131,251.819Z" transform="translate(20.637 -62.989)" fill="#e76f51"/>
  <path id="Path_245" data-name="Path 245" d="M293.26,92.944c-.234-.753-.353-1.15-.353-1.15s-40.021,46.844-47.349,54.171c-11.278,11.278-42.875,35.942-53.432,40.676-8.594,3.852-21.2,9.115-30.691,5.915-8.967-3.022-14.517-13.515-17.876-22.109-6.75-17.28-5.378-37.339-5.35-55.483,0-.087.012-.168.013-.254-.475,1.337-3.014,8.336-7.764,19-2.991,25.6-2.7,65.6,26.1,74.81C197.38,221.58,276.685,128.96,293.26,92.944Z" transform="translate(-1.293 -91.794)" fill="#b53a39"/>
  <g id="Group_29" data-name="Group 29" transform="translate(159.193 0.001)">
    <path id="Path_246" data-name="Path 246" d="M156.975,319.7l-1.28-.742,132.42-227.16.444,1.317Z" transform="translate(-155.696 -91.795)" fill="#543a39"/>
  </g>
  <g id="Group_30" data-name="Group 30" transform="translate(11.614 22.657)">
    <path id="Path_247" data-name="Path 247" d="M31.846,255.452l-1.117-.971,125.265-143.5.888.393Z" transform="translate(-30.729 -110.979)" fill="#543a39"/>
  </g>
  <g id="Group_31" data-name="Group 31" transform="translate(291.225)">
    <path id="Path_248" data-name="Path 248" d="M387.6,279.938,267.884,91.794l-.387,1.388L386.642,281.169A4.373,4.373,0,0,1,387.6,279.938Z" transform="translate(-267.497 -91.794)" fill="#543a39"/>
  </g>
  <path id="Path_249" data-name="Path 249" d="M368.408,243.889l-4.16,19.32,6.656,2.126,8.436-17.909Z" transform="translate(41.236 -64.272)" fill="#c06320"/>
  <path id="Path_250" data-name="Path 250" d="M370.963,245.273a4.659,4.659,0,0,1,.09-.529l-2.644-.855-4.16,19.32,4.306,1.22C369.079,257.964,370.5,251.693,370.963,245.273Z" transform="translate(41.235 -64.272)" fill="#974100"/>
  <path id="Path_251" data-name="Path 251" d="M367.922,244.395c-.185,2.4.578,5.828,4.6,6.493,2.208.365,4.54-.9,6.026-3.179l.136-.288-10.786-3.492A3.047,3.047,0,0,1,367.922,244.395Z" transform="translate(41.895 -64.265)" fill="#dc9567"/>
  <path id="Path_252" data-name="Path 252" d="M146.844,277.941l8.381,19.475,6.533-2.342-2.712-21.57Z" transform="translate(1.896 -58.913)" fill="#c06320"/>
  <path id="Path_253" data-name="Path 253" d="M152.031,275.664l-5.187,1.886,8.381,19.475,2.3-.826C155.9,292.5,152.324,278.749,152.031,275.664Z" transform="translate(1.896 -58.522)" fill="#974100"/>
  <path id="Path_254" data-name="Path 254" d="M154.3,280.972c5.219-1.448,4.677-7.26,4.745-7.468l-12.2,4.437.073.169C148.93,279.718,152.514,281.468,154.3,280.972Z" transform="translate(1.896 -58.913)" fill="#dc9567"/>
  <path id="Path_255" data-name="Path 255" d="M20.9,227.911l11.648,18.3,5.269-2.034-4.53-20.337Z" transform="translate(-20.895 -67.899)" fill="#dc9567"/>
  <path id="Path_256" data-name="Path 256" d="M33.32,223.99a7.5,7.5,0,0,1-6.22,5.06,12.317,12.317,0,0,1-6.2-1.154l11.639,18.292,5.269-2.035Z" transform="translate(-20.894 -67.873)" fill="#c06320"/>
  <path id="Path_257" data-name="Path 257" d="M34.294,244.708c-1.558-3.7-5.912-14.666-6.6-16.377-.2.041-.385.092-.59.122a12.318,12.318,0,0,1-6.2-1.154L32.541,245.59l1.845-.712C34.358,244.817,34.32,244.77,34.294,244.708Z" transform="translate(-20.894 -67.274)" fill="#974100"/>
</svg>
